<?xml version="1.0" standalone="no"?>
<!DOCTYPE svg PUBLIC "-//W3C//DTD SVG 20010904//EN"
 "http://www.w3.org/TR/2001/REC-SVG-20010904/DTD/svg10.dtd">
<svg version="1.0" xmlns="http://www.w3.org/2000/svg"
 width="1024.000000pt" height="1024.000000pt" viewBox="0 0 1024.000000 1024.000000"
 preserveAspectRatio="xMidYMid meet">

<g transform="translate(0.000000,1024.000000) scale(0.100000,-0.100000)"
fill="#000000" stroke="none">
<path d="M1417 6309 c-20 -5 -56 -18 -80 -30 -61 -31 -471 -440 -505 -504
l-27 -50 0 -565 0 -565 27 -57 c22 -47 66 -96 240 -268 185 -183 223 -215 287
-248 l75 -37 352 -3 c547 -5 580 2 745 164 54 53 96 101 95 108 -2 6 -1 7 2 3
4 -8 94 70 101 88 2 5 -9 -1 -25 -16 -54 -47 -62 -51 -70 -38 -4 7 -3 9 3 6 6
-4 31 11 55 33 25 22 48 37 51 34 2 -3 32 20 65 51 85 78 115 142 120 256 4
85 4 87 -22 104 -22 15 -45 17 -146 13 -142 -5 -148 -9 -157 -94 l-6 -59 -169
-165 c-94 -91 -179 -168 -189 -172 -11 -4 -185 -8 -386 -8 l-367 -1 -191 191
-190 190 -3 482 -3 482 98 95 c54 51 137 132 184 177 l86 84 392 0 c319 0 397
-3 419 -14 15 -8 93 -81 173 -163 126 -127 147 -154 154 -188 12 -70 22 -75
159 -75 155 0 166 6 166 90 0 36 -8 82 -21 117 -20 52 -44 80 -231 269 -130
132 -228 222 -257 238 -93 50 -139 55 -570 55 -218 -1 -413 -5 -434 -10z
m1226 -1557 c-10 -10 -20 -17 -22 -16 -6 5 20 34 30 34 5 0 1 -8 -8 -18z m274
-94 c-2 -18 -4 -6 -4 27 0 33 2 48 4 33 2 -15 2 -42 0 -60z m-10 -70 c-3 -8
-6 -5 -6 6 -1 11 2 17 5 13 3 -3 4 -12 1 -19z m-47 -101 c0 -1 -24 -25 -52
-52 l-53 -50 50 53 c46 48 55 57 55 49z m-440 -51 c0 -2 -8 -10 -17 -17 -16
-13 -17 -12 -4 4 13 16 21 21 21 13z m-60 -59 c0 -2 -10 -12 -22 -23 l-23 -19
19 23 c18 21 26 27 26 19z m25 -87 c3 -6 -1 -7 -9 -4 -18 7 -21 14 -7 14 6 0
13 -4 16 -10z m-378 -16 c-3 -3 -12 -4 -19 -1 -8 3 -5 6 6 6 11 1 17 -2 13 -5z
m216 -1 c-7 -2 -21 -2 -30 0 -10 3 -4 5 12 5 17 0 24 -2 18 -5z m251 -164
c-15 -16 -30 -29 -33 -29 -2 0 7 13 22 28 15 16 24 32 20 37 -5 4 -2 5 5 1 11
-6 7 -15 -14 -37z m-44 -35 c0 -8 -19 -13 -24 -6 -3 5 1 9 9 9 8 0 15 -2 15
-3z m-100 -54 c-8 -5 -24 -9 -35 -9 -16 1 -16 2 5 9 35 11 48 11 30 0z m-247
-17 c-40 -2 -106 -2 -145 0 -40 1 -8 3 72 3 80 0 112 -2 73 -3z m135 0 c-10
-2 -28 -2 -40 0 -13 2 -5 4 17 4 22 1 32 -1 23 -4z"/>
<path d="M1625 5841 c-16 -10 -96 -86 -177 -168 -134 -136 -147 -153 -153
-193 -3 -25 -5 -184 -3 -355 2 -260 6 -315 19 -338 29 -53 330 -346 368 -358
55 -19 366 -4 406 19 16 10 30 25 30 33 0 8 7 14 15 14 8 1 14 7 12 14 -1 7 1
10 6 7 5 -3 65 52 134 122 98 98 128 136 137 167 15 56 15 644 -1 699 -9 33
-38 68 -152 179 -78 77 -154 147 -171 158 -27 17 -51 19 -235 19 -183 0 -208
-2 -235 -19z m223 2 c-26 -2 -71 -2 -100 0 -29 2 -8 3 47 3 55 0 79 -1 53 -3z
m145 0 c-7 -2 -19 -2 -25 0 -7 3 -2 5 12 5 14 0 19 -2 13 -5z m60 -351 l87
-87 0 -255 0 -255 -92 -92 -93 -92 -93 -2 -93 -3 -94 94 -95 95 0 250 0 250
92 92 93 93 100 0 100 0 88 -88z m364 -79 c-3 -10 -5 -4 -5 12 0 17 2 24 5 18
2 -7 2 -21 0 -30z m0 -70 c-3 -10 -5 -2 -5 17 0 19 2 27 5 18 2 -10 2 -26 0
-35z m0 -100 c-2 -16 -4 -3 -4 27 0 30 2 43 4 28 2 -16 2 -40 0 -55z m0 -210
c-2 -32 -3 -8 -3 52 0 61 1 87 3 58 2 -29 2 -78 0 -110z m0 -125 c-2 -13 -4
-3 -4 22 0 25 2 35 4 23 2 -13 2 -33 0 -45z m-21 -126 c-8 -16 -22 -34 -31
-42 -9 -7 -4 5 11 28 32 48 41 55 20 14z m-56 -65 c0 -2 -17 -19 -37 -38 l-38
-34 34 38 c33 34 41 42 41 34z m-120 -122 c-24 -25 -46 -45 -49 -45 -3 0 15
20 39 45 24 25 46 45 49 45 3 0 -15 -20 -39 -45z m-193 -151 c-3 -3 -12 -4
-19 -1 -8 3 -5 6 6 6 11 1 17 -2 13 -5z"/>
<path d="M3575 5606 c-65 -21 -98 -42 -144 -91 -72 -78 -101 -173 -101 -328 0
-193 66 -324 196 -387 41 -20 64 -24 139 -24 78 0 97 3 141 26 64 34 118 95
144 165 11 30 20 58 20 63 0 6 -31 10 -69 10 -67 0 -69 -1 -81 -30 -26 -63
-114 -108 -185 -94 -51 9 -97 44 -125 94 -23 42 -25 55 -25 175 0 151 15 206
70 254 86 75 224 37 256 -70 l12 -39 74 0 73 0 -6 28 c-15 66 -59 144 -104
186 -74 69 -186 93 -285 62z"/>
<path d="M4319 5607 c-103 -29 -171 -88 -218 -187 -25 -52 -26 -63 -26 -225
l0 -170 33 -67 c61 -124 158 -183 302 -182 100 0 162 27 233 104 63 67 93 146
103 268 21 257 -111 452 -316 467 -38 3 -84 -1 -111 -8z m180 -160 c26 -17 48
-45 67 -83 26 -53 28 -68 29 -168 0 -99 -3 -117 -26 -167 -58 -123 -181 -155
-280 -72 -61 52 -71 88 -67 248 3 141 4 144 33 187 61 87 161 110 244 55z"/>
<path d="M4880 5195 l0 -415 235 0 235 0 0 70 0 70 -165 0 -165 0 0 345 0 345
-70 0 -70 0 0 -415z"/>
<path d="M6250 5513 c-27 -83 -209 -661 -226 -715 -5 -16 3 -18 73 -18 l79 0
28 105 29 105 138 0 138 0 32 -105 32 -105 77 0 77 0 -132 413 -131 412 -91 3
-92 3 -31 -98z m143 -125 c9 -35 32 -114 51 -175 l34 -113 -108 0 -107 0 48
161 c27 89 49 168 49 175 0 34 17 8 33 -48z"/>
<path d="M6830 5196 l0 -416 184 0 c199 0 240 8 304 57 73 56 104 189 63 279
-18 40 -66 84 -92 84 -7 0 6 16 28 35 54 46 66 79 61 164 -5 88 -39 142 -113
180 -47 25 -58 26 -242 29 l-193 3 0 -415z m27 142 c-1 -51 -3 -12 -3 87 0 99
2 141 3 93 2 -48 2 -129 0 -180z m318 138 c61 -26 86 -119 45 -176 -11 -15
-17 -30 -14 -33 3 -3 0 -8 -7 -13 -8 -5 -10 -3 -4 6 6 10 4 11 -11 5 -10 -5
-61 -10 -111 -13 l-93 -4 0 121 0 121 80 0 c47 0 95 -6 115 -14z m-318 -403
c-2 -32 -3 -6 -3 57 0 63 1 89 3 58 2 -32 2 -84 0 -115z m364 41 c56 -56 47
-148 -18 -191 -19 -13 -55 -19 -125 -23 l-98 -5 0 128 0 129 105 -4 c102 -3
106 -4 136 -34z m166 -111 c-3 -10 -5 -2 -5 17 0 19 2 27 5 18 2 -10 2 -26 0
-35z m-530 -105 c-2 -13 -4 -3 -4 22 0 25 2 35 4 23 2 -13 2 -33 0 -45z m473
-32 c0 -2 -8 -10 -17 -17 -16 -13 -17 -12 -4 4 13 16 21 21 21 13z m-473 -53
c-3 -10 -5 -2 -5 17 0 19 2 27 5 18 2 -10 2 -26 0 -35z"/>
<path d="M7550 5195 l0 -415 70 0 70 0 0 415 0 415 -70 0 -70 0 0 -415z m127
358 c-3 -10 -5 -2 -5 17 0 19 2 27 5 18 2 -10 2 -26 0 -35z m0 -120 c-2 -21
-4 -6 -4 32 0 39 2 55 4 38 2 -18 2 -50 0 -70z m0 -491 c-1 -81 -3 -12 -3 153
0 165 2 231 3 147 2 -84 2 -219 0 -300z"/>
<path d="M7872 5318 l3 -293 2 287 3 287 23 4 c19 4 18 4 -5 6 l-28 1 2 -292z"/>
<path d="M8004 5330 c0 -157 2 -221 3 -142 2 78 2 206 0 285 -1 78 -3 14 -3
-143z"/>
<path d="M8334 5325 c0 -159 2 -223 3 -142 2 82 2 212 0 290 -1 78 -3 12 -3
-148z"/>
<path d="M8640 5198 l0 -413 70 0 70 0 -2 285 -3 285 -2 -277 -3 -278 -58 0
-57 0 4 287 c3 161 7 266 11 238 l7 -50 1 52 c2 54 14 67 45 51 11 -5 17 -5
17 2 0 5 -8 11 -17 11 -24 2 -25 2 -45 -6 -14 -6 -18 -2 -18 15 0 19 3 20 15
10 12 -10 13 -8 10 10 -5 25 -15 40 -15 22 0 -7 -3 -12 -7 -12 -5 0 -8 38 -8
85 l0 85 71 0 71 0 63 -150 c35 -83 64 -149 66 -147 2 2 -24 72 -58 155 l-62
152 -83 0 -83 0 0 -412z"/>
<path d="M9256 5594 c-10 -25 -7 -29 7 -11 9 12 32 17 97 20 l85 3 -91 2 c-76
2 -93 -1 -98 -14z"/>
<path d="M5470 5190 l0 -410 230 0 230 0 0 70 0 70 -160 0 -160 0 0 340 0 340
-70 0 -70 0 0 -410z"/>
<path d="M9236 5543 c-6 -14 -5 -15 5 -6 7 7 10 15 7 18 -3 3 -9 -2 -12 -12z"/>
<path d="M9206 5475 c-9 -26 -7 -32 5 -12 6 10 9 21 6 23 -2 3 -7 -2 -11 -11z"/>
<path d="M8791 5338 c-1 -12 31 -89 35 -85 3 2 -4 24 -15 48 -11 24 -20 41
-20 37z"/>
<path d="M9304 5060 c0 -157 2 -221 3 -142 2 78 2 206 0 285 -1 78 -3 14 -3
-143z"/>
<path d="M8715 5321 c-3 -6 -11 -9 -16 -6 -5 3 -6 -1 -3 -9 5 -14 8 -14 21 0
9 8 13 17 10 20 -3 3 -8 0 -12 -5z"/>
<path d="M9246 5275 c-9 -26 -7 -32 5 -12 6 10 9 21 6 23 -2 3 -7 -2 -11 -11z"/>
<path d="M8464 5165 c0 -55 1 -76 3 -47 2 29 2 74 0 100 -2 26 -3 2 -3 -53z"/>
<path d="M8831 5235 c0 -5 6 -21 14 -35 8 -14 14 -20 14 -15 0 6 -6 21 -14 35
-8 14 -14 21 -14 15z"/>
<path d="M8964 5210 c9 -32 39 -101 43 -97 2 3 -8 29 -22 58 -14 30 -23 47
-21 39z"/>
<path d="M9216 5205 c-9 -26 -7 -32 5 -12 6 10 9 21 6 23 -2 3 -7 -2 -11 -11z"/>
<path d="M8690 5191 c0 -17 18 -21 24 -6 3 9 0 15 -9 15 -8 0 -15 -4 -15 -9z"/>
<path d="M9082 5175 c-17 -37 -14 -45 4 -12 9 16 14 31 11 33 -2 2 -9 -7 -15
-21z"/>
<path d="M8861 5165 c0 -5 6 -21 14 -35 8 -14 14 -20 14 -15 0 6 -6 21 -14 35
-8 14 -14 21 -14 15z"/>
<path d="M8890 5095 c0 -5 5 -17 10 -25 5 -8 10 -10 10 -5 0 6 -5 17 -10 25
-5 8 -10 11 -10 5z"/>
<path d="M8700 5077 c0 -14 29 -57 33 -50 3 4 -3 19 -14 32 -10 13 -19 21 -19
18z"/>
<path d="M9156 5065 c-9 -26 -7 -32 5 -12 6 10 9 21 6 23 -2 3 -7 -2 -11 -11z"/>
<path d="M8911 5045 c0 -5 6 -21 14 -35 8 -14 14 -20 14 -15 0 6 -6 21 -14 35
-8 14 -14 21 -14 15z"/>
<path d="M8672 5005 c-1 -19 0 -35 2 -35 8 0 13 49 6 60 -4 6 -7 -5 -8 -25z"/>
<path d="M8321 5014 c0 -11 3 -14 6 -6 3 7 2 16 -1 19 -3 4 -6 -2 -5 -13z"/>
<path d="M9126 4995 c-9 -26 -7 -32 5 -12 6 10 9 21 6 23 -2 3 -7 -2 -11 -11z"/>
<path d="M8672 4908 c-2 -57 -2 -58 26 -57 26 0 26 1 5 11 -17 8 -23 21 -26
57 -3 44 -3 43 -5 -11z"/>
<path d="M8700 4936 c-5 -15 -7 -33 -3 -39 4 -7 10 3 14 23 9 43 3 52 -11 16z"/>
<path d="M9100 4930 c-13 -31 -14 -32 -72 -28 -32 2 -58 0 -58 -4 0 -5 27 -8
60 -8 56 0 60 2 75 31 9 17 14 33 12 35 -2 3 -10 -9 -17 -26z"/>
<path d="M8148 4893 c12 -2 32 -2 45 0 12 2 2 4 -23 4 -25 0 -35 -2 -22 -4z"/>
<path d="M7950 4855 c13 -14 26 -25 28 -25 3 0 -5 11 -18 25 -13 14 -26 25
-28 25 -3 0 5 -11 18 -25z"/>
<path d="M8379 4853 l-24 -28 28 24 c15 14 27 26 27 28 0 8 -8 1 -31 -24z"/>
<path d="M8004 4816 c11 -9 24 -16 30 -16 12 0 7 5 -24 19 -24 11 -24 11 -6
-3z"/>
<path d="M8103 4783 c9 -2 23 -2 30 0 6 3 -1 5 -18 5 -16 0 -22 -2 -12 -5z"/>
<path d="M8178 4783 c18 -2 45 -2 60 0 15 2 0 4 -33 4 -33 0 -45 -2 -27 -4z"/>
</g>
</svg>
